# xmcd
#
# Track frame offsets: 
#        182
#        16427
#        42970
#        60122
#        78390
#        94680
#        111910
#        128927
#        147552
#        161657
#        178885
#        193267
#        207930
#        228705
#
# Disc length: 3303 seconds
#
# Revision: 3
# Processed by: cddbd v1.5.2PL0 Copyright (c) Steve Scherf et al.
# Submitted via: ExactAudioCopy v0.95b4
#
DISCID=c80ce50e
DTITLE=B.B. King - making love is good for you
DYEAR=2000
DGENRE=Blues
TTITLE0=I Go To Leave This Woman
TTITLE1=Since I Fell For You
TTITLE2=I Know
TTITLE3=Peace Of Mind
TTITLE4=Monday Woman
TTITLE5=Ain't Nobody Like My Baby
TTITLE6=Makin' Love is Good For You
TTITLE7=Don't Go No Further
TTITLE8=Action Speak Louder Than Words
TTITLE9=What You Bet
TTITLE10=You're On Top
TTITLE11=Too Good To You Baby
TTITLE12=I'm In The Wrong Business
TTITLE13=She's My Baby
EXTD=
EXTT0=
EXTT1=
EXTT2=
EXTT3=
EXTT4=
EXTT5=
EXTT6=
EXTT7=
EXTT8=
EXTT9=
EXTT10=
EXTT11=
EXTT12=
EXTT13=
PLAYORDER=
